<svg width="24" height="24" viewBox="0 0 24 24" fill="none" xmlns="http://www.w3.org/2000/svg">
  <path d="M11.98 22c-1.31 0-2.64-.26-3.92-.81a9.932 9.932 0 0 1-5.35-5.47c-.99-2.48-.96-5.2.09-7.65a9.932 9.932 0 0 1 5.47-5.35 9.9 9.9 0 0 1 7.65.09c5.07 2.17 7.43 8.06 5.26 13.13-1.62 3.79-5.32 6.07-9.21 6.07l.01-.01ZM12 4c-1.01 0-2.01.19-2.98.58a7.927 7.927 0 0 0-4.38 4.28 7.92 7.92 0 0 0-.07 6.12c.8 1.98 2.31 3.54 4.28 4.38 4.05 1.73 8.77-.15 10.5-4.21 1.73-4.06-.15-8.77-4.21-10.5A8.04 8.04 0 0 0 11.99 4H12Z" fill="#6f6f6f"/>
  <path d="M13 11V7h-2v4H7v2h4v4h2v-4h4v-2h-4Z" fill="#6f6f6f"/>
</svg>
