<svg width="24" height="24" fill="none" xmlns="http://www.w3.org/2000/svg">
  <path d="M11.996 21H10.24c-.46 0-.887-.206-1.174-.564L5.517 16H4a2.005 2.005 0 0 1-2.002-2.002v-3.995C1.998 8.898 2.896 8 4 8h1.517l3.549-4.436A1.494 1.494 0 0 1 10.239 3h1.757c1.104 0 2.002.898 2.002 2.001v13.997A2.004 2.004 0 0 1 11.996 21Zm-1.518-2h1.518l.002-13.999L10.478 5l-4 5-2.48.003v3.995l2.48.002 4 5ZM18.315 16.901l1.42 1.42A9.975 9.975 0 0 0 22 12.002a9.975 9.975 0 0 0-2.265-6.322l-1.42 1.42A7.981 7.981 0 0 1 20 12a7.981 7.981 0 0 1-1.685 4.901Z" fill="#6f6f6f"/>
  <path d="m15.438 14.024 1.445 1.445a5.941 5.941 0 0 0 0-6.938L15.44 9.976c.361.612.561 1.3.561 2.024 0 .723-.2 1.412-.562 2.024Z" fill="#6f6f6f"/>
</svg>
