<svg width="24" height="24" fill="none" xmlns="http://www.w3.org/2000/svg">
  <path d="M19 12c-.29 0-.56.05-.82.13l-.55-1.09c.12-.01.24-.04.36-.04h1V9h-1c-.45 0-.87.08-1.29.19l-1.82-3.64-.89.45h-1v2h.88l.62 1.24-2.57.43a.983.983 0 0 0-.93-.66h-2c-.43 0-.79.28-.93.66l-3.9-.65-.33 1.97 5.1.85 1.3 2.16H8.81a2.99 2.99 0 0 0-2.82-2c-1.65 0-3 1.35-3 3s1.35 3 3 3c1.3 0 2.4-.84 2.82-2h6.18v-2c0-.81.32-1.54.84-2.08l.69 1.38c-.33.48-.53 1.07-.53 1.7 0 1.65 1.35 3 3 3s3-1.35 3-3-1.35-3-3-3H19ZM6 16c-.55 0-1-.45-1-1s.45-1 1-1 1 .45 1 1-.45 1-1 1Zm6.57-2-1.32-2.19 2.51-.42A4.95 4.95 0 0 0 13 14h-.43ZM19 16c-.55 0-1-.45-1-1s.45-1 1-1 1 .45 1 1-.45 1-1 1Z" fill="#6f6f6f"/>
</svg>
