<svg width="24" height="24" fill="none" xmlns="http://www.w3.org/2000/svg">
  <path d="m21.49 9.84-3.05-.76-3.57-2.68c-.34-.26-.76-.4-1.19-.4H6.54c-.67 0-1.29.33-1.67.89L3.31 9.22l-1.48.74c-.51.25-.83.77-.83 1.34v4.19c0 .83.67 1.5 1.5 1.5h.69c.41 1.16 1.51 2 2.82 2 1.31 0 2.4-.84 2.82-2h6.37c.41 1.16 1.51 2 2.82 2 1.31 0 2.4-.84 2.82-2h.68c.83 0 1.51-.68 1.51-1.51v-3.71c0-.92-.62-1.72-1.51-1.94l-.03.01ZM6 17c-.55 0-1-.45-1-1s.45-1 1-1 1 .45 1 1-.45 1-1 1Zm12 0c-.55 0-1-.45-1-1s.45-1 1-1 1 .45 1 1-.45 1-1 1Zm3-2h-.18A2.99 2.99 0 0 0 18 13c-1.31 0-2.4.84-2.82 2H8.81a2.99 2.99 0 0 0-2.82-2c-1.31 0-2.4.84-2.82 2h-.18v-3.38l1.68-.84L6.52 8h7.12l3.9 2.92 3.44.86V15H21Z" fill="#6f6f6f"/>
</svg>
