<svg width="24" height="24" fill="none" xmlns="http://www.w3.org/2000/svg">
  <path d="M22.6 8.13 20.1 4.8c-.38-.5-.98-.8-1.6-.8H15v2H1.72l1.89 7.56C2.64 14.18 2 15.26 2 16.5 2 18.43 3.57 20 5.5 20c1.76 0 3.2-1.31 3.45-3h5.1c.25 1.69 1.69 3 3.45 3 1.54 0 2.83-1 3.3-2.39L22.41 16c.37-.37.59-.89.59-1.42V9.33c0-.43-.14-.85-.4-1.2ZM5.5 18c-.83 0-1.5-.67-1.5-1.5S4.67 15 5.5 15s1.5.67 1.5 1.5S6.33 18 5.5 18Zm.03-5L4.28 8H15v6h.06c-.29.29-.53.63-.71 1h-5.7a3.51 3.51 0 0 0-3.12-2Zm11.97 5c-.83 0-1.5-.67-1.5-1.5s.67-1.5 1.5-1.5 1.5.67 1.5 1.5-.67 1.5-1.5 1.5Zm3.5-3.41-.37.37A3.482 3.482 0 0 0 17.5 13c-.17 0-.34.03-.5.05V6h1.5L21 9.33v5.26Z" fill="#6f6f6f"/>
</svg>
