<svg width="24" height="24" fill="none" xmlns="http://www.w3.org/2000/svg">
  <path d="m21.78 9.96-2.06-.88-1.55-3A1.998 1.998 0 0 0 16.39 5H1v11.49c0 .83.68 1.51 1.51 1.51h.67c.41 1.16 1.51 2 2.82 2 1.31 0 2.4-.84 2.82-2h6.37c.41 1.16 1.51 2 2.82 2 1.31 0 2.4-.84 2.82-2h.68c.83 0 1.5-.67 1.5-1.5v-4.69c0-.8-.48-1.53-1.22-1.85h-.01ZM6 18c-.55 0-1-.45-1-1s.45-1 1-1 1 .45 1 1-.45 1-1 1Zm12 0c-.55 0-1-.45-1-1s.45-1 1-1 1 .45 1 1-.45 1-1 1Zm3-2h-.18A2.99 2.99 0 0 0 18 14c-1.31 0-2.4.84-2.82 2H8.81a2.99 2.99 0 0 0-2.82-2c-1.31 0-2.4.84-2.82 2h-.18V7h13.39l1.88 3.64 2.72 1.17V16H21Z" fill="#6f6f6f"/>
</svg>
